<svg xmlns="http://www.w3.org/2000/svg" viewBox="0 0 100 100"><path d="M94.99 52.64c0 12.02-4.68 23.32-13.18 31.82-3.02 3.02-6.46 5.6-10.22 7.66-.3.17-.63.25-.96.25-.71 0-1.39-.38-1.76-1.04-.53-.97-.18-2.18.79-2.71 3.43-1.88 6.56-4.22 9.31-6.98 7.74-7.74 12.01-18.04 12.01-28.99S86.72 31.4 78.97 23.66c-7.74-7.74-18.04-12.01-28.99-12.01s-21.25 4.26-28.99 12.01C5 39.65 5 65.66 20.99 81.64a41.31 41.31 0 0 0 9.31 6.98c.97.53 1.32 1.75.79 2.71-.53.97-1.74 1.32-2.71.79-3.76-2.06-7.2-4.63-10.22-7.66C.61 66.91.61 38.37 18.16 20.82c8.5-8.5 19.8-13.18 31.82-13.18S73.3 12.32 81.8 20.82c8.51 8.5 13.19 19.8 13.19 31.82zm-14 0c0-8.28-3.22-16.07-9.08-21.92-12.09-12.09-31.75-12.09-43.84 0-5.86 5.85-9.08 13.64-9.08 21.92 0 8.28 3.22 16.07 9.08 21.92 2.06 2.06 4.4 3.82 6.97 5.23.97.53 2.18.18 2.72-.79.53-.97.18-2.18-.79-2.72a26.82 26.82 0 0 1-6.07-4.56c-10.53-10.53-10.53-27.66 0-38.18s27.66-10.53 38.18 0 10.53 27.66 0 38.18a27.117 27.117 0 0 1-6.07 4.56c-.97.53-1.32 1.75-.79 2.72.37.66 1.05 1.03 1.75 1.03.33 0 .66-.08.96-.25 2.56-1.41 4.91-3.17 6.97-5.23 5.86-5.85 9.09-13.63 9.09-21.91zm-14 0c0-4.54-1.77-8.81-4.98-12.02a16.891 16.891 0 0 0-12.02-4.98c-4.54 0-8.81 1.77-12.02 4.98a16.891 16.891 0 0 0-4.98 12.02c0 4.54 1.77 8.81 4.98 12.02 1.08 1.08 2.33 2.02 3.71 2.8.96.54 2.18.2 2.72-.76s.2-2.18-.76-2.72c-1.06-.6-2.02-1.32-2.84-2.14a12.905 12.905 0 0 1-3.81-9.19c0-3.47 1.35-6.74 3.81-9.19 2.46-2.46 5.72-3.81 9.19-3.81 3.47 0 6.74 1.35 9.19 3.81 2.46 2.46 3.81 5.72 3.81 9.19 0 3.47-1.35 6.74-3.81 9.19-.82.82-1.78 1.54-2.84 2.14a1.99 1.99 0 0 0-.76 2.72c.37.65 1.05 1.02 1.75 1.02.33 0 .67-.08.98-.26 1.38-.78 2.63-1.72 3.71-2.8 3.2-3.21 4.97-7.48 4.97-12.02z"/></svg>