<svg xmlns="http://www.w3.org/2000/svg" viewBox="0 0 24 24"><path style="font-feature-settings:normal;font-variant-alternates:normal;font-variant-caps:normal;font-variant-east-asian:normal;font-variant-ligatures:normal;font-variant-numeric:normal;font-variant-position:normal;font-variation-settings:normal;inline-size:0;isolation:auto;mix-blend-mode:normal;shape-margin:0;shape-padding:0;text-decoration-color:#000;text-decoration-line:none;text-decoration-style:solid;text-indent:0;text-orientation:mixed;text-transform:none" d="m6.765625 11.505859-1.828125 1.4648437c-1.2237494 0.97899951-1.9375 2.462133-1.9375 4.0292969v2.4140625c1.6375788 1.7665665 5.2358362 2.5859375 9 2.5859375 3.7641638 0 7.3624212-0.81937098 9-2.5859375v-2.4140625c0-1.5671638-0.71375063-3.0502974-1.9375-4.0292969l-1.828125-1.4648437-1.25 1.5625 1.8300781 1.4628906c0.75047427 0.60037941 1.1855469 1.507674 1.1855469 2.46875v1.4550781c-0.77641567 0.69608893-3.3180439 1.5449219-7 1.5449219-3.6819561 0-6.2235843-0.84883295-7-1.5449219v-1.4550781c0-0.96107599 0.43507261-1.8683706 1.1855469-2.46875l1.8300781-1.4628906zm5.234375-9.5058594c-2.7495791 0-5 2.2504209-5 5s2.2504209 5 5 5c2.7495791 0 5-2.2504209 5-5s-2.2504209-5-5-5zm0 2c1.6686989 0 3 1.3313011 3 3s-1.3313011 3-3 3-3-1.3313011-3-3 1.3313011-3 3-3z" color="#000" paint-order="fill markers stroke"/></svg>